<mxfile host="app.diagrams.net" modified="2023-05-09T14:14:31.831Z" agent="Mozilla/5.0 (Windows NT 10.0; Win64; x64) AppleWebKit/537.36 (KHTML, like Gecko) Chrome/113.0.0.0 Safari/537.36 Edg/113.0.1774.35" version="21.2.9" etag="XYZyt58x_h_TjnvKCvZx" type="github">
  <diagram name="第 1 页" id="8vmqmBnTw8XsMEeyKrTQ">
    <mxGraphModel>
      <root>
        <mxCell id="0" />
        <mxCell id="1" parent="0" />
      </root>
    </mxGraphModel>
  </diagram>
</mxfile>
